<?xml version="1.0" encoding="UTF-8"?>
<svg width="512" height="512"
     version="1.1"
     viewBox="0 0 512 512"
     xml:space="preserve"
     xmlns="http://www.w3.org/2000/svg">
    <g transform="translate(60,30)" fill="#1e1d20">
        <path transform="translate(120)" d="m140 130v40 40h-40-40v40 40h40v-40h40v40h-40v40h40a40 40 0 0 0 40-40v-40-40-40a40 40 0 0 0-40-40z"/>
        <path d="m140 130a40 40 0 0 0-40 40v40 40 40a40 40 0 0 0 40 40v-40-40-40h40v-40h-40v-40zm40 40h40v-40h-40v40z"/>
    </g>
</svg>
